<svg width="248" height="72" viewBox="0 0 248 72" fill="none" xmlns="http://www.w3.org/2000/svg">
<path d="M36 0C55.8823 0 72 16.1177 72 36C72 55.8823 55.8823 72 36 72C16.1177 72 0 55.8823 0 36C0 16.1177 16.1177 0 36 0ZM15.5 27.5898C13.567 27.5898 12.0001 29.1569 12 31.0898C12 33.0228 13.567 34.5898 15.5 34.5898C17.433 34.5898 19 33.0228 19 31.0898C18.9999 29.1569 17.433 27.5898 15.5 27.5898Z" fill="#6C5721"/>
<path d="M118.354 1.22067C118.773 1.07761 119.227 1.07761 119.646 1.22067L147.832 10.845C149.993 11.583 149.42 14.7982 147.137 14.7607C126.66 14.4243 111.335 14.4219 90.8706 14.7591C88.5868 14.7967 88.0137 11.5807 90.1753 10.8426L118.354 1.22067Z" fill="#3B0000"/>
<path d="M148.169 55.7852C148.073 56.8136 147.21 57.6 146.177 57.6H116.253C115.094 57.6 114.178 56.6191 114.257 55.4636L114.854 46.7364C114.933 45.5808 114.017 44.6 112.859 44.6H103.141C101.983 44.6 101.067 45.5808 101.146 46.7364L101.743 55.4636C101.822 56.6191 100.905 57.6 99.7472 57.6H94.8225C93.7897 57.6 92.9268 56.8136 92.8311 55.7852L89.2032 16.7852C89.0941 15.6126 90.0169 14.6 91.1946 14.6H149.805C150.983 14.6 151.906 15.6126 151.797 16.7852L148.169 55.7852ZM132.17 27.6C131.001 27.6 130.081 28.5978 130.176 29.7627L130.421 32.7627C130.506 33.8007 131.373 34.6 132.415 34.6H136.585C137.627 34.6 138.494 33.8007 138.579 32.7627L138.823 29.7627C138.919 28.5978 137.999 27.6 136.83 27.6H132.17Z" fill="#B9AF8D"/>
<path d="M172.091 16.5928C172.091 15.4882 171.195 14.5928 170.091 14.5928H158.252C157.086 14.5928 156.168 15.5853 156.258 16.7473L159.281 55.7474C159.362 56.7888 160.23 57.5928 161.275 57.5928H170.091C171.195 57.5928 172.091 56.6973 172.091 55.5928V16.5928Z" fill="#6C5721"/>
<path d="M123.354 1.22067C123.773 1.07761 124.227 1.07761 124.646 1.22067L152.832 10.845C154.993 11.583 154.42 14.7982 152.137 14.7607C131.66 14.4243 116.335 14.4219 95.8706 14.7591C93.5868 14.7967 93.0137 11.5807 95.1753 10.8426L123.354 1.22067Z" fill="#C00000"/>
<path d="M172.091 16.5928C172.091 15.4882 171.195 14.5928 170.091 14.5928H161.221C160.067 14.5928 159.152 15.5668 159.225 16.7185L161.681 55.7185C161.747 56.7722 162.621 57.5928 163.677 57.5928H170.091C171.195 57.5928 172.091 56.6973 172.091 55.5928V16.5928Z" fill="#FEC841"/>
<path d="M145.008 57.5928H140.5H114.5H99H92.1738H145.008Z" fill="#6C5721"/>
<path d="M81.1742 55.7751C81.08 56.8047 80.2165 57.5928 79.1825 57.5928H76.2095C74.7292 57.5928 73.7551 56.0362 74.3204 54.6681C76.7492 48.7899 78.0908 42.3483 78.0908 35.5928C78.0908 29.2015 76.8894 23.0913 74.7032 17.4732C74.1733 16.1117 75.1469 14.5928 76.6079 14.5928H82.752C83.9285 14.5928 84.8509 15.6034 84.7436 16.7751L81.1742 55.7751Z" fill="#6C5721"/>
<path d="M245.008 57.59H240.5H214.5H199H192.174H245.008Z" fill="#6C5721"/>
<path d="M181.174 55.7723C181.08 56.8019 180.216 57.59 179.182 57.59H176.21C174.729 57.59 173.755 56.0334 174.32 54.6653C176.749 48.7871 178.091 42.3455 178.091 35.59C178.091 29.1987 176.889 23.0885 174.703 17.4704C174.173 16.1089 175.147 14.59 176.608 14.59H182.752C183.928 14.59 184.851 15.6006 184.744 16.7723L181.174 55.7723Z" fill="#6C5721"/>
<path d="M148.008 57.5928H143.5H121.5H102H95.1738H148.008Z" fill="#FEC841"/>
<path d="M84.1742 55.7751C84.08 56.8047 83.2165 57.5928 82.1825 57.5928H79.2095C77.7292 57.5928 76.7551 56.0362 77.3204 54.6681C79.7492 48.7899 81.0908 42.3483 81.0908 35.5928C81.0908 29.2015 79.8894 23.0913 77.7032 17.4732C77.1733 16.1117 78.1469 14.5928 79.6079 14.5928H85.752C86.9285 14.5928 87.8509 15.6034 87.7436 16.7751L84.1742 55.7751Z" fill="#FEC841"/>
<path d="M248.008 57.59H243.5H221.5H202H195.174H248.008Z" fill="#FEC841"/>
<path d="M184.563 56.4951C184.223 57.1668 183.533 57.59 182.78 57.59H179.21C177.729 57.59 176.755 56.0334 177.32 54.6653C179.749 48.7871 181.091 42.3455 181.091 35.59C181.091 29.1987 179.889 23.0885 177.703 17.4704C177.173 16.1089 178.147 14.59 179.608 14.59H186.517C187.37 14.59 188.13 15.1317 188.408 15.9389L194.898 34.789C195.074 35.301 195.035 35.8625 194.79 36.3453L184.563 56.4951Z" fill="#FEC841"/>
<path d="M151.169 55.7852C151.073 56.8136 150.21 57.6 149.177 57.6H119.253C118.094 57.6 117.178 56.6191 117.257 55.4636L117.854 46.7364C117.933 45.5808 117.017 44.6 115.859 44.6H106.141C104.983 44.6 104.067 45.5808 104.146 46.7364L104.743 55.4636C104.822 56.6191 103.905 57.6 102.747 57.6H97.8225C96.7897 57.6 95.9268 56.8136 95.8311 55.7852L92.2032 16.7852C92.0941 15.6126 93.0169 14.6 94.1946 14.6H152.805C153.983 14.6 154.906 15.6126 154.797 16.7852L151.169 55.7852ZM135.17 27.6C134.001 27.6 133.081 28.5978 133.176 29.7627L133.421 32.7627C133.506 33.8007 134.373 34.6 135.415 34.6H139.585C140.627 34.6 141.494 33.8007 141.579 32.7627L141.823 29.7627C141.919 28.5978 140.999 27.6 139.83 27.6H135.17Z" fill="#FFF8DF"/>
<path d="M39 0C58.8823 0 75 16.1177 75 36C75 55.8823 58.8823 72 39 72C19.1177 72 3 55.8823 3 36C3 16.1177 19.1177 0 39 0ZM18.5 27.5898C16.567 27.5898 15.0001 29.1569 15 31.0898C15 33.0228 16.567 34.5898 18.5 34.5898C20.433 34.5898 22 33.0228 22 31.0898C21.9999 29.1569 20.433 27.5898 18.5 27.5898Z" fill="#FEC841"/>
</svg>
