<svg width="455" height="310" viewBox="0 0 455 310" fill="none" xmlns="http://www.w3.org/2000/svg">
<rect x="5" y="86" width="108" height="103" rx="25" fill="#C00000"/>
<rect x="30" y="170" width="63" height="128" rx="18" fill="#C00000"/>
<circle cx="61" cy="37" r="37" fill="#C00000"/>
<rect x="91" y="216" width="24" height="18" fill="#C00000"/>
<rect x="90" y="238" width="24" height="12" fill="#C00000"/>
<rect x="90" y="253" width="24" height="25" fill="#C00000"/>
<rect y="86" width="108" height="103" rx="25" fill="#88CDFF"/>
<rect x="25" y="170" width="63" height="128" rx="18" fill="#88CDFF"/>
<circle cx="56" cy="37" r="37" fill="#88CDFF"/>
<rect x="86" y="216" width="24" height="18" fill="#88CDFF"/>
<rect x="85" y="238" width="24" height="12" fill="#88CDFF"/>
<rect x="85" y="253" width="24" height="25" fill="#88CDFF"/>
<circle cx="56" cy="20" r="6" fill="#C00000"/>
<circle cx="57" cy="21" r="5" fill="white"/>
<path d="M46.973 256.996V278.089H35.492V215.7H46.973V236.793L71.092 215.789H88.625L52.936 246.939L88.625 278.089H71.092L46.973 256.996Z" fill="#C00000"/>
<path d="M144.229 267.676L143.784 266.519L123.492 215.789H135.863L150.014 251.033L164.165 215.789H176.625L156.244 266.519L155.799 267.676V278H144.229V267.676ZM224.06 266.519V278H212.579V242.311C212.579 227.626 224.416 215.7 239.101 215.7C253.786 215.7 265.712 227.626 265.712 242.311V278H254.142V266.519H224.06ZM239.101 227.27C230.824 227.27 224.06 234.034 224.06 242.311V254.949H254.142V242.311C254.142 234.034 247.467 227.27 239.101 227.27ZM305.434 278H270.724V215.789H305.434C315.58 215.789 323.857 223.977 323.857 234.212C323.857 239.107 321.899 243.557 318.784 246.85C321.899 250.232 323.857 254.682 323.857 259.577C323.857 269.812 315.58 278 305.434 278ZM282.205 227.27V241.154H305.434C309.261 241.154 312.376 238.039 312.376 234.212C312.376 230.385 309.261 227.27 305.434 227.27H282.205ZM282.205 252.635V266.519H305.434C309.261 266.519 312.376 263.404 312.376 259.577C312.376 255.75 309.261 252.635 305.434 252.635H282.205ZM340.438 278H328.957V215.7H340.438V278ZM366.21 278V227.27H345.384V215.789H398.517V227.27H377.691V278H366.21ZM410.577 266.519V278H399.096V242.311C399.096 227.626 410.933 215.7 425.618 215.7C440.303 215.7 452.229 227.626 452.229 242.311V278H440.659V266.519H410.577ZM425.618 227.27C417.341 227.27 410.577 234.034 410.577 242.311V254.949H440.659V242.311C440.659 234.034 433.984 227.27 425.618 227.27Z" fill="#C00000"/>
</svg>
